<svg width="26" height="24" viewBox="0 0 26 24" fill="none" xmlns="http://www.w3.org/2000/svg">
<path d="M23.1606 21.1926C23.1606 22.7366 21.8973 24 20.3533 24H4.91283C3.36878 24 2.10547 22.7366 2.10547 21.1926V9.26134C2.10547 7.71729 3.36878 6.45398 4.91283 6.45398H20.3533C21.8973 6.45398 23.1606 7.71729 23.1606 9.26134V21.1926Z" fill="#FDD888"/>
<path d="M25.2662 7.15581C25.2662 8.69985 24.0029 9.96316 22.4589 9.96316H2.80736C1.26331 9.96316 0 8.69985 0 7.15581C0 5.61176 1.26331 4.34845 2.80736 4.34845H22.4589C24.0029 4.34845 25.2662 5.61176 25.2662 7.15581Z" fill="#FDD888"/>
<path d="M2.10547 9.9632H23.1606V11.3669H2.10547V9.9632Z" fill="#FCAB40"/>
<path d="M13.335 1.54108H11.9313C10.7684 1.54108 9.82581 2.48365 9.82581 3.64659V23.9999H15.4405V3.64659C15.4405 2.48435 14.4979 1.54108 13.335 1.54108Z" fill="#DA2F47"/>
<path d="M11.2294 4.3485C12.0014 4.3485 12.1158 3.98636 11.4828 3.54349L6.76502 0.24064C6.13196 -0.20222 5.30168 -0.016233 4.91848 0.654023L3.50357 3.13011C3.12037 3.80037 3.439 4.3485 4.21102 4.3485H11.2294ZM14.0368 4.3485C13.2647 4.3485 13.1503 3.98636 13.7834 3.54349L18.5019 0.24064C19.1342 -0.20222 19.9652 -0.016233 20.3484 0.654023L21.7633 3.12941C22.1458 3.80037 21.8272 4.3485 21.0552 4.3485H14.0368Z" fill="#DA2F47"/>
</svg>
