<svg width="25" height="24" viewBox="0 0 25 24" fill="none" xmlns="http://www.w3.org/2000/svg">
<path d="M0.0184937 11.6571L5.50421 6.85712L16.4756 7.54283L17.1614 18.5143L12.3614 24C12.3614 24 12.362 19.8864 8.24707 15.7714C4.13209 11.6564 0.0184937 11.6571 0.0184937 11.6571Z" fill="#A0041E"/>
<path d="M1.33767e-05 23.9999C1.33767e-05 23.9999 -0.0246723 18.5286 2.04687 16.4571C4.11841 14.3855 9.61853 14.5282 9.61853 14.5282C9.61853 14.5282 9.61784 19.8856 7.5607 21.9428C5.50356 23.9999 1.33767e-05 23.9999 1.33767e-05 23.9999Z" fill="#FFAC33"/>
<path d="M5.50354 21.2571C7.01838 21.2571 8.2464 20.0291 8.2464 18.5143C8.2464 16.9994 7.01838 15.7714 5.50354 15.7714C3.9887 15.7714 2.76068 16.9994 2.76068 18.5143C2.76068 20.0291 3.9887 21.2571 5.50354 21.2571Z" fill="#FFCC4D"/>
<path d="M24.0179 0C24.0179 0 17.1607 0 8.93216 6.85714C4.81787 10.2857 4.81787 16.4571 6.1893 17.8286C7.56073 19.2 13.7322 19.2 17.1607 15.0857C24.0179 6.85714 24.0179 0 24.0179 0Z" fill="#55ACEE"/>
<path d="M17.8464 3.42859C16.7335 3.42859 15.7804 4.09442 15.3497 5.04687C15.694 4.89122 16.0732 4.80002 16.475 4.80002C17.9897 4.80002 19.2178 6.02813 19.2178 7.54287C19.2178 7.9447 19.1266 8.3239 18.9717 8.66745C19.9241 8.2375 20.5893 7.28436 20.5893 6.17145C20.5893 4.6567 19.3612 3.42859 17.8464 3.42859Z" fill="black"/>
<path d="M4.81854 19.2C4.81854 19.2 4.81854 16.4571 5.50426 15.7714C6.18997 15.0857 14.4192 8.22922 15.1043 8.91425C15.7893 9.59928 8.93214 17.8285 8.24643 18.5142C7.56071 19.2 4.81854 19.2 4.81854 19.2Z" fill="#A0041E"/>
</svg>
