<svg width="26" height="24" viewBox="0 0 26 24" fill="none" xmlns="http://www.w3.org/2000/svg">
<path d="M24.0399 4.43912L22.1152 6.36457C22.1152 6.36457 20.8313 7.00615 19.5481 5.72229C18.2643 4.43912 18.9059 3.15526 18.9059 3.15526L20.8313 1.22981C21.4736 0.588233 20.7021 0 20.123 0C17.2794 0 14.9749 2.3045 14.9749 5.14739C14.9749 5.5468 15.0255 5.93427 15.1111 6.30771L10.7597 10.6591L14.6099 14.5093L18.9613 10.1586C19.3355 10.2442 19.7222 10.2948 20.1223 10.2948C22.9652 10.2948 25.2697 7.99028 25.2697 5.14739C25.2704 4.56477 24.6815 3.79754 24.0399 4.43912ZM10.6839 10.7847L2.12788 19.3401C1.07847 20.3902 1.07847 22.0924 2.12788 23.1425C3.1787 24.192 4.88022 24.192 5.93034 23.1425L14.485 14.5872L10.6839 10.7847ZM4.0456 22.3486C3.47071 22.3486 3.00532 21.8825 3.00532 21.3084C3.00532 20.7342 3.47141 20.2674 4.0456 20.2674C4.6205 20.2674 5.08589 20.7335 5.08589 21.3084C5.08589 21.8825 4.6205 22.3486 4.0456 22.3486Z" fill="#8899A6"/>
<path d="M21.6413 23.3601C22.4598 24.1786 23.7626 24.2172 24.5341 23.445C25.3062 22.6729 25.2676 21.3708 24.4491 20.5523L8.1183 4.22146C7.29912 3.40229 5.99771 3.36438 5.22557 4.13652C4.45342 4.90867 4.49203 6.21078 5.3105 7.02926L21.6413 23.3601Z" fill="#F4900C"/>
<path d="M15.0529 0.62696C15.0529 0.62696 10.8412 -1.47889 7.33146 2.03086L2.41782 6.9445C2.41782 6.9445 1.71587 6.24255 1.01393 6.9445L0.311977 7.64645C0.311977 7.64645 -0.389971 8.3484 0.311977 9.05034L3.11977 11.8581C3.11977 11.8581 3.82172 12.5601 4.52367 11.8581L5.22562 11.1562C5.22562 11.1562 5.92757 10.4542 5.22562 9.75229L5.17087 9.69754C5.71137 9.17599 6.52071 8.64462 7.33146 9.05034L10.1393 6.24255C10.1393 6.24255 9.43731 4.1367 10.8412 2.73281C12.2451 1.32891 12.9471 1.32891 14.351 1.32891C15.7548 1.32891 15.0529 0.62696 15.0529 0.62696Z" fill="#66757F"/>
</svg>
